<?xml version="1.0" encoding="utf-8"?>
<!-- Generator: Adobe Illustrator 26.3.1, SVG Export Plug-In . SVG Version: 6.00 Build 0)  -->
<svg version="1.1"
	 id="transfeminism-logo" xmlns:dc="http://purl.org/dc/elements/1.1/" xmlns:svg="http://www.w3.org/2000/svg" xmlns:cc="http://creativecommons.org/ns#" xmlns:sodipodi="http://sodipodi.sourceforge.net/DTD/sodipodi-0.dtd" sodipodi:docname="Trans woman power symbol.svg" xmlns:inkscape="http://www.inkscape.org/namespaces/inkscape" xmlns:rdf="http://www.w3.org/1999/02/22-rdf-syntax-ns#"
	 xmlns="http://www.w3.org/2000/svg" xmlns:xlink="http://www.w3.org/1999/xlink" x="0px" y="0px" viewBox="0 0 141.7 141.7"
	 style="enable-background:new 0 0 141.7 141.7;" xml:space="preserve">
<style type="text/css">
	.st0{fill:#FFFFFF;}
</style>
<g>
	<path class="st0" d="M81.8,85.6l-1.1,1.2l0.1,6.5c0,0.8,0,1.5,0,2.2c9.7-3.9,16.5-13.4,16.5-24.5c0-7-2.7-13.7-7.7-18.6
		c-5-5-11.6-7.7-18.6-7.7c-7,0-13.7,2.7-18.6,7.7c-5,5-7.7,11.6-7.7,18.6c0,11.4,7.3,21.1,17.4,24.8c0.1-0.4,0.1-0.7,0.2-1.2
		c0.2-1.4,0.5-3.6,0.7-4.8c0.2-1.2,0.4-2.8,0.5-3.6c0.1-0.8,0.2-1.5,0.1-1.6c-0.3-0.5-1.7-2.6-3.9-5.9c-4.2-6.2-6.5-9.6-6.8-10.1
		c-0.4-0.8-0.3-1.1,0.7-2.5c0.5-0.7,1.2-1.8,1.6-2.3c1.9-2.7,5.3-7.5,5.5-7.8c0.1-0.2,0.4-0.3,0.5-0.3c0.2,0,9.3,3.9,10.9,4.7
		c0.4,0.2,0.7,0.5,0.8,0.7c0.2,0.5-0.2,3-0.4,3.4c-0.2,0.3-0.8,0.4-3.6,0.7c-2.7,0.3-3,0.2-4.6-1.4c-0.6-0.6-1.2-1.1-1.2-1
		c-0.2,0.1,0.2,1.5,0.5,2c0.6,1,0.4,1.4-0.9,1.6c-0.9,0.2-1.3,0.4-1.1,0.6c0.1,0.1,1.2,0.5,2.5,1c1.8,0.7,2.5,1,2.8,1.3
		c0.2,0.2,0.4,0.5,0.4,0.5c0,0.1,0.3,0.7,0.7,1.4c6.3,10.8,6.1,10.5,6,11c-0.1,0.2-0.4,0.6-1,1c-0.5,0.3-0.9,0.7-0.8,0.8
		c0.1,0.1,0.4,0.1,0.9,0.1l0.8,0l0,1.4c0,0.8-0.2,3.5-0.4,6.1c-0.2,2.3-0.3,4-0.4,5.2h0.9c0.2-2.9,0.4-4.9,0.5-5.4
		c0-0.3,0.2-2,0.4-3.8c0.2-1.7,0.4-3.2,0.4-3.3c0.1-0.1,0.4-0.1,0.8,0c0.4,0.1,0.7,0.1,0.8,0c0-0.1-0.3-0.8-0.8-1.6
		c-0.5-0.8-1.4-2.3-2-3.4c-0.6-1-1.3-2.1-1.4-2.4c-0.2-0.3-1.2-2-2.3-3.8c-1.3-2.3-1.9-3.3-1.8-3.5c0.1-0.1,0.6-0.1,1.5,0
		c1.1,0.1,1.7,0.4,3.4,1.1c3.3,1.5,3.3,1.5,5.1,3.3c1.1,1.1,1.7,1.7,2,1.7c0.4,0,1-0.4,3.8-2.5c1-0.8,1.9-1.4,2-1.4
		c0.3,0,0.3,0.5-0.1,2.8C85.2,80.3,84.1,83.1,81.8,85.6z M68.7,57.9c-0.1,0-0.3,0-0.4,0c-0.9-0.3-5.5-2.4-5.6-2.5
		c-0.2-0.3-0.2-0.3,1-1.9c0.6-0.9,1.6-2.2,2.2-3c1.3-1.8,2-2.5,2.3-2.5c0.3,0,1.8,0.9,3.5,2.4c1,0.9,1.2,1.2,1.1,1.4
		C72.8,52.2,68.9,57.8,68.7,57.9z M71.6,59.5c-1-0.5-1.7-0.9-1.8-1.1c0-0.2,3.7-5.9,4.1-6.2c0.5-0.3,0.9-0.1,3.2,2.2l1.9,1.9
		c0.2,0.2,0.4,0.5,0.3,0.7c-0.1,0.1-0.2,0.3-0.3,0.4c-0.1,0.1-1.2,1.6-2.2,2.9s-2.1,2.8-2.5,3.2c-0.9,1.2-1,1.1-0.9-0.9
		c0.1-1.1,0.1-1.8,0-2C73.4,60.5,72.6,60,71.6,59.5z M70,68.9c-0.1,0-1.3-0.4-2.6-0.9c-2.5-1-2.9-1.1-2.7-1.5c0.1-0.2,0.3-0.2,1,0
		c1,0.2,1.8,0.1,3.9-0.3c2.8-0.6,3-0.5,2.5,0.5C71.7,67.4,70.3,68.9,70,68.9z M73.9,70.4c-1.2-0.5-2.1-1-2.2-1.1
		c-0.2-0.2,0.6-1.3,4-5.9c4.2-5.6,4.3-5.7,4.7-5.6c0.5,0.3,4.3,4.1,4.3,4.3c0,0.3-0.2,0.5-5.6,6.7c-0.9,1-1.7,2-1.9,2.2
		C76.7,71.6,76.2,71.5,73.9,70.4z M85.8,70.9c-1.3,1.1-3,2.5-3.7,3.1c-0.7,0.6-1.4,1.1-1.6,1.1c-0.2,0-0.8-0.6-1.6-1.4
		c-1.1-1.2-1.3-1.5-1.2-1.7c0.1-0.2,0.8-1,1.5-1.8c0.8-0.8,1.7-1.8,2-2.2c0.4-0.4,0.7-0.8,0.9-1c0.1-0.1,0.9-1,1.7-1.9
		c0.8-0.9,1.6-1.8,1.7-1.8c0.4-0.1,3.9,3.9,3.9,4.5C89.4,68,88.9,68.4,85.8,70.9z"/>
	<path class="st0" d="M124,23.9v19.7h-9.3V30.5L97.7,47.4c5.8,6.5,9,14.8,9,23.6c0,18.1-13.5,33.1-31,35.4v12.4h12.7v9.3H75.6v13.5
		c36.9-2.5,66.1-33.2,66.1-70.7C141.7,52.9,135,36.4,124,23.9z"/>
	<path class="st0" d="M47.1,14.6v9.3H33.9l7.7,7.7l8.9-8.9l6.6,6.6l-8.9,8.9l3.1,3.1c5.8-3.9,12.6-5.9,19.7-5.9
		c7.1,0,13.9,2.1,19.7,5.9l17.4-17.4H94.9v-9.3h19C102,5.4,87.1,0,70.9,0s-31.1,5.4-43,14.6H47.1z"/>
	<path class="st0" d="M66.3,128.1H53.6v-9.3h12.7v-12.4c-17.5-2.3-31-17.3-31-35.4c0-8.8,3.2-17.1,9-23.6l-2.7-2.7l-8.9,8.9
		l-6.6-6.6l8.9-8.9l-7.7-7.7v13.2H18v-20C6.8,36.2,0,52.7,0,70.9c0,37.6,29.3,68.4,66.3,70.7V128.1z"/>
	<polygon class="st0" points="70.9,141.7 70.9,141.7 70.9,141.7 	"/>
</g>
</svg>
