<?xml version="1.0" encoding="utf-8"?>
<!-- Generator: Adobe Illustrator 26.3.1, SVG Export Plug-In . SVG Version: 6.00 Build 0)  -->
<svg version="1.1"
	 id="transfeminism-logo" xmlns:dc="http://purl.org/dc/elements/1.1/" xmlns:svg="http://www.w3.org/2000/svg" xmlns:cc="http://creativecommons.org/ns#" xmlns:sodipodi="http://sodipodi.sourceforge.net/DTD/sodipodi-0.dtd" sodipodi:docname="Trans woman power symbol.svg" xmlns:inkscape="http://www.inkscape.org/namespaces/inkscape" xmlns:rdf="http://www.w3.org/1999/02/22-rdf-syntax-ns#"
	 xmlns="http://www.w3.org/2000/svg" xmlns:xlink="http://www.w3.org/1999/xlink" x="0px" y="0px" viewBox="0 0 128.2 141.7"
	 style="enable-background:new 0 0 128.2 141.7;" xml:space="preserve">
<style type="text/css">
	.st0{fill:#FFFFFF;}
</style>
<g>
	<path class="st0" d="M97.6,0v13.5h7.6L87.6,31.1c-6.8-4.9-14.9-7.5-23.5-7.5c-8.5,0-16.6,2.6-23.5,7.5l-3.4-3.4l7.2-7.2L34.9,11
		l-7.2,7.2L23,13.5h7.6V0H0v30.6h13.5V23l4.7,4.7L11,34.9l9.5,9.5l7.2-7.2l3.4,3.4c-4.9,6.8-7.5,14.9-7.5,23.5
		c0,20,14.6,36.7,33.7,39.9v9H38.8v13.5h18.6v15.2h13.5v-15.2h18.6V113H70.9v-9c19.1-3.2,33.7-19.9,33.7-39.9
		c0-8.5-2.6-16.6-7.5-23.5L114.7,23v7.6h13.5V0H97.6z M75.6,88.5l0-3.3l1.3-1.4c2.7-3,4-6.2,5.1-12.8c0.4-2.7,0.5-3.3,0.1-3.3
		c-0.1,0-1.2,0.7-2.4,1.6c-3.4,2.5-4.1,3-4.5,3c-0.3,0-1-0.7-2.3-2c-2.1-2.1-2.2-2.2-6-3.9c-1.9-0.9-2.7-1.1-4-1.3
		c-1.1-0.1-1.6-0.2-1.8,0c-0.1,0.1,0.5,1.4,2.1,4.1c1.3,2.1,2.5,4.2,2.7,4.5c0.2,0.3,1,1.6,1.7,2.9c0.7,1.2,1.8,3,2.3,4
		c0.6,1,1,1.8,1,1.9c0,0.1-0.5,0.1-0.9,0c-0.5-0.1-0.9-0.1-1,0c-0.1,0.1-0.3,1.9-0.5,3.9c-0.2,2.1-0.4,4-0.4,4.4
		c-0.4,0.1-0.7,0.1-1.1,0.1c0.2-3,0.5-6.1,0.5-7l0-1.7l-0.9,0.1c-0.5,0-1,0-1-0.1c-0.1-0.1,0.4-0.5,1-0.9c0.7-0.4,1.1-0.9,1.2-1.2
		c0.1-0.5,0.3-0.2-7.1-12.9c-0.5-0.8-0.9-1.5-0.9-1.6c0-0.1-0.2-0.3-0.5-0.6c-0.3-0.4-1.2-0.8-3.3-1.6c-1.5-0.6-2.9-1.1-3-1.2
		c-0.3-0.3,0.1-0.5,1.3-0.7c1.5-0.2,1.7-0.8,1-1.9c-0.4-0.6-0.8-2.2-0.6-2.3c0.1-0.1,0.7,0.5,1.5,1.2c1.9,1.9,2.3,2,5.4,1.7
		c3.3-0.4,4-0.5,4.3-0.9c0.3-0.4,0.7-3.4,0.5-4c-0.1-0.3-0.5-0.6-1-0.9c-1.9-0.9-12.5-5.6-12.8-5.6c-0.2,0-0.4,0.1-0.6,0.3
		c-0.3,0.4-4.3,6-6.5,9.2c-0.4,0.6-1.3,1.9-1.9,2.7c-1.2,1.7-1.3,2-0.8,3c0.3,0.6,3,4.6,8,11.9c2.6,3.8,4.3,6.3,4.6,6.9
		c0.1,0.1,0,1-0.2,1.9c-0.2,0.9-0.4,2.8-0.6,4.2c0,0.1,0,0.3-0.1,0.4c-10.2-3.9-17.4-13.7-17.4-25.2c0-7.2,2.8-14,7.9-19.1
		c5.1-5.1,11.9-7.9,19.1-7.9c7.2,0,14,2.8,19.1,7.9c5.1,5.1,7.9,11.9,7.9,19.1C91.1,74.9,84.8,84.2,75.6,88.5z"/>
	<path class="st0" d="M62.4,60.9c-2.4,0.5-3.4,0.6-4.5,0.4c-0.8-0.2-1.1-0.2-1.2,0c-0.2,0.4,0.1,0.6,3.1,1.7c1.6,0.6,3,1.1,3.1,1.1
		c0.4,0,2-1.8,2.4-2.6C65.9,60.3,65.7,60.3,62.4,60.9z"/>
	<path class="st0" d="M67.1,54.4c0.1,0.2,0.1,1.1,0,2.3c-0.2,2.4,0,2.5,1.1,1.1c0.4-0.5,1.7-2.2,2.9-3.8c1.2-1.6,2.5-3.3,2.6-3.4
		c0.1-0.1,0.2-0.3,0.3-0.4c0.1-0.2-0.1-0.6-0.4-0.8l-2.3-2.2c-2.8-2.7-3.2-3-3.8-2.6c-0.4,0.3-4.8,7-4.8,7.3c0,0.2,0.9,0.7,2.1,1.3
		C66,53.7,67,54.2,67.1,54.4z"/>
	<path class="st0" d="M65.1,42.3c-2.1-1.7-3.8-2.8-4.1-2.8c-0.4,0-1.2,0.9-2.7,3c-0.7,0.9-1.9,2.5-2.6,3.6c-1.4,2-1.4,1.9-1.2,2.3
		c0.1,0.2,5.6,2.6,6.6,3c0.1,0,0.4,0.1,0.5,0c0.3-0.1,4.8-6.7,4.9-7.2C66.4,43.6,66.3,43.3,65.1,42.3z"/>
	<path class="st0" d="M81.2,57.5c-0.1,0-1,1-2,2.1c-1,1.1-1.9,2.1-2.1,2.3c-0.1,0.1-0.6,0.6-1,1.1c-0.4,0.5-1.5,1.7-2.4,2.6
		c-0.9,1-1.7,1.9-1.8,2.1c-0.1,0.3,0.1,0.6,1.4,2c1,1,1.7,1.7,1.9,1.7c0.2,0,1-0.6,1.9-1.3c0.8-0.7,2.8-2.3,4.4-3.6
		c3.6-3,4.2-3.5,4.2-3.7C85.8,62.1,81.7,57.3,81.2,57.5z"/>
	<path class="st0" d="M80.2,56.4c0-0.2-4.5-4.8-5.1-5.1c-0.4-0.2-0.5-0.1-5.5,6.6c-4,5.4-5,6.7-4.7,7c0,0,1.2,0.6,2.6,1.2
		c2.7,1.3,3.4,1.4,3.9,0.8c0.2-0.2,1.2-1.4,2.2-2.5C80.1,57,80.2,56.8,80.2,56.4z"/>
</g>
</svg>
